<mxfile host="app.diagrams.net" agent="Mozilla/5.0 (Windows NT 10.0; Win64; x64; rv:139.0) Gecko/20100101 Firefox/139.0" version="27.1.4">
  <diagram name="Página-1" id="odkFiBBw2N_IDISt32cO">
    <mxGraphModel grid="1" page="1" gridSize="10" guides="1" tooltips="1" connect="1" arrows="1" fold="1" pageScale="1" pageWidth="827" pageHeight="1169" math="0" shadow="0">
      <root>
        <mxCell id="0" />
        <mxCell id="1" parent="0" />
        <mxCell id="WssrRDGDtjN74brYx7gQ-12" value="" style="shape=umlLifeline;perimeter=lifelinePerimeter;whiteSpace=wrap;html=1;container=1;dropTarget=0;collapsible=0;recursiveResize=0;outlineConnect=0;portConstraint=eastwest;newEdgeStyle={&quot;curved&quot;:0,&quot;rounded&quot;:0};participant=umlActor;" vertex="1" parent="1">
          <mxGeometry x="-40" y="130" width="20" height="90" as="geometry" />
        </mxCell>
        <mxCell id="WssrRDGDtjN74brYx7gQ-15" value="" style="html=1;points=[[0,0,0,0,5],[0,1,0,0,-5],[1,0,0,0,5],[1,1,0,0,-5]];perimeter=orthogonalPerimeter;outlineConnect=0;targetShapes=umlLifeline;portConstraint=eastwest;newEdgeStyle={&quot;curved&quot;:0,&quot;rounded&quot;:0};" vertex="1" parent="1">
          <mxGeometry x="-35" y="220" width="10" height="340" as="geometry" />
        </mxCell>
        <mxCell id="WssrRDGDtjN74brYx7gQ-42" value="" style="endArrow=none;dashed=1;html=1;rounded=0;entryX=0.5;entryY=1;entryDx=0;entryDy=0;" edge="1" parent="1">
          <mxGeometry width="50" height="50" relative="1" as="geometry">
            <mxPoint x="120" y="230" as="sourcePoint" />
            <mxPoint x="120" y="180" as="targetPoint" />
          </mxGeometry>
        </mxCell>
        <mxCell id="WssrRDGDtjN74brYx7gQ-49" value="Tecnico laboratorio, Administrador" style="text;html=1;align=center;verticalAlign=middle;resizable=0;points=[];autosize=1;strokeColor=none;fillColor=none;" vertex="1" parent="1">
          <mxGeometry x="-130" y="100" width="200" height="30" as="geometry" />
        </mxCell>
        <mxCell id="4GxCkoyrOx1n-vuWYFQ4-1" value="1. Confirma la creación&lt;div&gt;de la cotización&lt;/div&gt;" style="html=1;verticalAlign=bottom;endArrow=block;curved=0;rounded=0;" edge="1" parent="1" source="WssrRDGDtjN74brYx7gQ-15" target="4GxCkoyrOx1n-vuWYFQ4-2">
          <mxGeometry x="0.0714" y="20" width="80" relative="1" as="geometry">
            <mxPoint y="269.5" as="sourcePoint" />
            <mxPoint x="110" y="270" as="targetPoint" />
            <Array as="points">
              <mxPoint x="90" y="270" />
            </Array>
            <mxPoint as="offset" />
          </mxGeometry>
        </mxCell>
        <mxCell id="4GxCkoyrOx1n-vuWYFQ4-2" value="" style="html=1;points=[[0,0,0,0,5],[0,1,0,0,-5],[1,0,0,0,5],[1,1,0,0,-5]];perimeter=orthogonalPerimeter;outlineConnect=0;targetShapes=umlLifeline;portConstraint=eastwest;newEdgeStyle={&quot;curved&quot;:0,&quot;rounded&quot;:0};" vertex="1" parent="1">
          <mxGeometry x="115" y="220" width="10" height="330" as="geometry" />
        </mxCell>
        <mxCell id="4GxCkoyrOx1n-vuWYFQ4-4" value="2. Solicitar la generación de cotización con los&lt;div&gt;datos ingresados&lt;/div&gt;" style="html=1;verticalAlign=bottom;endArrow=block;curved=0;rounded=0;" edge="1" parent="1">
          <mxGeometry width="80" relative="1" as="geometry">
            <mxPoint x="125" y="280" as="sourcePoint" />
            <mxPoint x="395" y="280" as="targetPoint" />
          </mxGeometry>
        </mxCell>
        <mxCell id="4GxCkoyrOx1n-vuWYFQ4-5" value="" style="html=1;points=[[0,0,0,0,5],[0,1,0,0,-5],[1,0,0,0,5],[1,1,0,0,-5]];perimeter=orthogonalPerimeter;outlineConnect=0;targetShapes=umlLifeline;portConstraint=eastwest;newEdgeStyle={&quot;curved&quot;:0,&quot;rounded&quot;:0};" vertex="1" parent="1">
          <mxGeometry x="395" y="220" width="10" height="310" as="geometry" />
        </mxCell>
        <mxCell id="4GxCkoyrOx1n-vuWYFQ4-6" value="" style="endArrow=none;dashed=1;html=1;rounded=0;" edge="1" parent="1">
          <mxGeometry width="50" height="50" relative="1" as="geometry">
            <mxPoint x="399" y="220" as="sourcePoint" />
            <mxPoint x="399" y="180" as="targetPoint" />
          </mxGeometry>
        </mxCell>
        <mxCell id="4GxCkoyrOx1n-vuWYFQ4-7" value="" style="html=1;points=[[0,0,0,0,5],[0,1,0,0,-5],[1,0,0,0,5],[1,1,0,0,-5]];perimeter=orthogonalPerimeter;outlineConnect=0;targetShapes=umlLifeline;portConstraint=eastwest;newEdgeStyle={&quot;curved&quot;:0,&quot;rounded&quot;:0};" vertex="1" parent="1">
          <mxGeometry x="555" y="220" width="10" height="280" as="geometry" />
        </mxCell>
        <mxCell id="4GxCkoyrOx1n-vuWYFQ4-8" value="" style="endArrow=none;dashed=1;html=1;rounded=0;" edge="1" parent="1">
          <mxGeometry width="50" height="50" relative="1" as="geometry">
            <mxPoint x="559.5" y="220" as="sourcePoint" />
            <mxPoint x="559.5" y="180" as="targetPoint" />
          </mxGeometry>
        </mxCell>
        <mxCell id="4GxCkoyrOx1n-vuWYFQ4-9" value="3. Percibe un cambio en&lt;div&gt;la pestaña&amp;nbsp;&amp;nbsp;&lt;span style=&quot;background-color: light-dark(#ffffff, var(--ge-dark-color, #121212)); color: light-dark(rgb(0, 0, 0), rgb(255, 255, 255));&quot;&gt;y notifica&amp;nbsp;&lt;/span&gt;&lt;/div&gt;&lt;div&gt;&lt;span style=&quot;background-color: light-dark(#ffffff, var(--ge-dark-color, #121212)); color: light-dark(rgb(0, 0, 0), rgb(255, 255, 255));&quot;&gt;el evento&lt;/span&gt;&lt;/div&gt;" style="html=1;verticalAlign=bottom;endArrow=block;curved=0;rounded=0;" edge="1" parent="1">
          <mxGeometry width="80" relative="1" as="geometry">
            <mxPoint x="405" y="300" as="sourcePoint" />
            <mxPoint x="555" y="300" as="targetPoint" />
            <Array as="points">
              <mxPoint x="490" y="300" />
            </Array>
            <mxPoint as="offset" />
          </mxGeometry>
        </mxCell>
        <mxCell id="4GxCkoyrOx1n-vuWYFQ4-10" value="4. Prepara la solicitud y&amp;nbsp;&lt;div&gt;entrega la información ingresada&lt;/div&gt;&lt;div&gt;y de los logs a sqlx&lt;/div&gt;" style="html=1;verticalAlign=bottom;endArrow=block;curved=0;rounded=0;" edge="1" parent="1">
          <mxGeometry width="80" relative="1" as="geometry">
            <mxPoint x="565" y="320" as="sourcePoint" />
            <mxPoint x="796" y="320" as="targetPoint" />
          </mxGeometry>
        </mxCell>
        <mxCell id="4GxCkoyrOx1n-vuWYFQ4-11" value="" style="html=1;points=[[0,0,0,0,5],[0,1,0,0,-5],[1,0,0,0,5],[1,1,0,0,-5]];perimeter=orthogonalPerimeter;outlineConnect=0;targetShapes=umlLifeline;portConstraint=eastwest;newEdgeStyle={&quot;curved&quot;:0,&quot;rounded&quot;:0};" vertex="1" parent="1">
          <mxGeometry x="796" y="220" width="10" height="260" as="geometry" />
        </mxCell>
        <mxCell id="4GxCkoyrOx1n-vuWYFQ4-12" value="" style="endArrow=none;dashed=1;html=1;rounded=0;" edge="1" parent="1">
          <mxGeometry width="50" height="50" relative="1" as="geometry">
            <mxPoint x="800.5" y="220" as="sourcePoint" />
            <mxPoint x="800.5" y="180" as="targetPoint" />
          </mxGeometry>
        </mxCell>
        <mxCell id="4GxCkoyrOx1n-vuWYFQ4-13" value="5. Solicitud para almacenar&amp;nbsp;&lt;div&gt;los datos en la base&lt;/div&gt;" style="html=1;verticalAlign=bottom;endArrow=block;curved=0;rounded=0;" edge="1" parent="1">
          <mxGeometry width="80" relative="1" as="geometry">
            <mxPoint x="806" y="340" as="sourcePoint" />
            <mxPoint x="996" y="340" as="targetPoint" />
            <mxPoint as="offset" />
          </mxGeometry>
        </mxCell>
        <mxCell id="4GxCkoyrOx1n-vuWYFQ4-15" value="" style="html=1;points=[[0,0,0,0,5],[0,1,0,0,-5],[1,0,0,0,5],[1,1,0,0,-5]];perimeter=orthogonalPerimeter;outlineConnect=0;targetShapes=umlLifeline;portConstraint=eastwest;newEdgeStyle={&quot;curved&quot;:0,&quot;rounded&quot;:0};" vertex="1" parent="1">
          <mxGeometry x="996" y="220" width="10" height="240" as="geometry" />
        </mxCell>
        <mxCell id="4GxCkoyrOx1n-vuWYFQ4-16" value="" style="endArrow=none;dashed=1;html=1;rounded=0;" edge="1" parent="1">
          <mxGeometry width="50" height="50" relative="1" as="geometry">
            <mxPoint x="1000.5" y="220" as="sourcePoint" />
            <mxPoint x="1000.5" y="180" as="targetPoint" />
          </mxGeometry>
        </mxCell>
        <mxCell id="4GxCkoyrOx1n-vuWYFQ4-17" value="6. Realiza la consulta&lt;div&gt;en la base de datos&lt;/div&gt;" style="html=1;verticalAlign=bottom;endArrow=block;curved=0;rounded=0;" edge="1" parent="1">
          <mxGeometry width="80" relative="1" as="geometry">
            <mxPoint x="1006" y="359.5" as="sourcePoint" />
            <mxPoint x="1195" y="359.5" as="targetPoint" />
            <mxPoint as="offset" />
          </mxGeometry>
        </mxCell>
        <mxCell id="4GxCkoyrOx1n-vuWYFQ4-18" value="" style="html=1;points=[[0,0,0,0,5],[0,1,0,0,-5],[1,0,0,0,5],[1,1,0,0,-5]];perimeter=orthogonalPerimeter;outlineConnect=0;targetShapes=umlLifeline;portConstraint=eastwest;newEdgeStyle={&quot;curved&quot;:0,&quot;rounded&quot;:0};" vertex="1" parent="1">
          <mxGeometry x="1195" y="220" width="10" height="220" as="geometry" />
        </mxCell>
        <mxCell id="4GxCkoyrOx1n-vuWYFQ4-19" value="" style="endArrow=none;dashed=1;html=1;rounded=0;" edge="1" parent="1">
          <mxGeometry width="50" height="50" relative="1" as="geometry">
            <mxPoint x="1199.5" y="220" as="sourcePoint" />
            <mxPoint x="1199.5" y="180" as="targetPoint" />
          </mxGeometry>
        </mxCell>
        <mxCell id="4GxCkoyrOx1n-vuWYFQ4-22" value="8. Envía los datos&lt;div&gt;a sqlx&lt;/div&gt;" style="html=1;verticalAlign=bottom;endArrow=open;dashed=1;endSize=8;curved=0;rounded=0;" edge="1" parent="1">
          <mxGeometry relative="1" as="geometry">
            <mxPoint x="996" y="440" as="sourcePoint" />
            <mxPoint x="806" y="440" as="targetPoint" />
          </mxGeometry>
        </mxCell>
        <mxCell id="4GxCkoyrOx1n-vuWYFQ4-23" value="9. Transferir los datos al controlador" style="html=1;verticalAlign=bottom;endArrow=open;dashed=1;endSize=8;curved=0;rounded=0;" edge="1" parent="1">
          <mxGeometry x="0.0043" relative="1" as="geometry">
            <mxPoint x="796" y="460" as="sourcePoint" />
            <mxPoint x="565" y="460" as="targetPoint" />
            <mxPoint as="offset" />
          </mxGeometry>
        </mxCell>
        <mxCell id="4GxCkoyrOx1n-vuWYFQ4-24" value="7. La tabla se actualiza con los datos&lt;div&gt;ingresados y se registra&lt;/div&gt;&lt;div&gt;el evento realizado&lt;/div&gt;" style="html=1;verticalAlign=bottom;endArrow=open;dashed=1;endSize=8;curved=0;rounded=0;" edge="1" parent="1">
          <mxGeometry relative="1" as="geometry">
            <mxPoint x="1195" y="420" as="sourcePoint" />
            <mxPoint x="1006" y="420" as="targetPoint" />
          </mxGeometry>
        </mxCell>
        <mxCell id="4GxCkoyrOx1n-vuWYFQ4-25" value="10. Procesar los datos&lt;div&gt;y se envían a webview&lt;/div&gt;" style="html=1;verticalAlign=bottom;endArrow=open;dashed=1;endSize=8;curved=0;rounded=0;" edge="1" parent="1">
          <mxGeometry relative="1" as="geometry">
            <mxPoint x="555" y="480" as="sourcePoint" />
            <mxPoint x="405" y="480" as="targetPoint" />
            <mxPoint as="offset" />
          </mxGeometry>
        </mxCell>
        <mxCell id="4GxCkoyrOx1n-vuWYFQ4-26" value="11. Crear los componentes para&amp;nbsp;&lt;div&gt;que sean visualizados&lt;/div&gt;" style="html=1;verticalAlign=bottom;endArrow=open;dashed=1;endSize=8;curved=0;rounded=0;" edge="1" parent="1">
          <mxGeometry relative="1" as="geometry">
            <mxPoint x="395" y="500" as="sourcePoint" />
            <mxPoint x="125" y="500" as="targetPoint" />
          </mxGeometry>
        </mxCell>
        <mxCell id="4GxCkoyrOx1n-vuWYFQ4-27" value="12.&amp;nbsp;&amp;nbsp;Mostrar mensaje&amp;nbsp;&lt;div&gt;de éxito&lt;/div&gt;" style="html=1;verticalAlign=bottom;endArrow=open;dashed=1;endSize=8;curved=0;rounded=0;" edge="1" parent="1">
          <mxGeometry relative="1" as="geometry">
            <mxPoint x="115" y="520" as="sourcePoint" />
            <mxPoint x="-25" y="520" as="targetPoint" />
          </mxGeometry>
        </mxCell>
        <mxCell id="WoXS_Rm3VEj6Z2o5pPkB-1" value="&lt;div&gt;V_Generación_&lt;/div&gt;&lt;div&gt;Cotización&lt;/div&gt;" style="rounded=0;whiteSpace=wrap;html=1;fillColor=#d5e8d4;strokeColor=#82b366;" vertex="1" parent="1">
          <mxGeometry x="70" y="140" width="100" height="40" as="geometry" />
        </mxCell>
        <mxCell id="WoXS_Rm3VEj6Z2o5pPkB-14" value="C_WebView2" style="rounded=0;whiteSpace=wrap;html=1;fillColor=#e1d5e7;strokeColor=#9673a6;" vertex="1" parent="1">
          <mxGeometry x="350" y="140" width="100" height="40" as="geometry" />
        </mxCell>
        <mxCell id="WoXS_Rm3VEj6Z2o5pPkB-15" value="C_sqlx" style="rounded=0;whiteSpace=wrap;html=1;fillColor=#e1d5e7;strokeColor=#9673a6;" vertex="1" parent="1">
          <mxGeometry x="751" y="140" width="100" height="40" as="geometry" />
        </mxCell>
        <mxCell id="WoXS_Rm3VEj6Z2o5pPkB-16" value="C_MySQL" style="rounded=0;whiteSpace=wrap;html=1;fillColor=#dae8fc;strokeColor=#6c8ebf;" vertex="1" parent="1">
          <mxGeometry x="951" y="140" width="100" height="40" as="geometry" />
        </mxCell>
        <mxCell id="WoXS_Rm3VEj6Z2o5pPkB-19" value="C_Admin_Cotizaciones-TSX" style="rounded=0;whiteSpace=wrap;html=1;fillColor=#dae8fc;strokeColor=#6c8ebf;" vertex="1" parent="1">
          <mxGeometry x="485" y="140" width="150" height="40" as="geometry" />
        </mxCell>
        <mxCell id="WoXS_Rm3VEj6Z2o5pPkB-20" value="Cotizacion" style="rounded=0;whiteSpace=wrap;html=1;fillColor=#ffe6cc;strokeColor=#d79b00;" vertex="1" parent="1">
          <mxGeometry x="1150" y="140" width="100" height="40" as="geometry" />
        </mxCell>
      </root>
    </mxGraphModel>
  </diagram>
</mxfile>
